<?xml version="1.0" standalone="no"?>
<!DOCTYPE svg PUBLIC "-//W3C//DTD SVG 20010904//EN"
 "http://www.w3.org/TR/2001/REC-SVG-20010904/DTD/svg10.dtd">
<svg version="1.0" xmlns="http://www.w3.org/2000/svg"
 width="256.000000pt" height="256.000000pt" viewBox="0 0 256.000000 256.000000"
 preserveAspectRatio="xMidYMid meet">
<metadata>
Created by potrace 1.11, written by Peter Selinger 2001-2013
</metadata>
<g transform="translate(0.000000,256.000000) scale(0.100000,-0.100000)"
fill="#000000" stroke="none">
<path d="M1221 2549 c-79 -24 -169 -153 -226 -324 -22 -65 -67 -254 -68 -282
0 -17 1 -18 -104 21 -208 78 -404 107 -511 77 -51 -14 -110 -64 -128 -108 -32
-77 -1 -192 88 -319 48 -71 227 -262 291 -311 l29 -22 -39 -33 c-150 -130
-298 -306 -351 -418 -36 -78 -37 -181 -2 -233 71 -105 232 -118 503 -41 48 14
115 37 149 50 33 14 64 22 68 17 4 -4 17 -55 29 -113 54 -250 136 -418 236
-480 17 -10 52 -22 78 -25 149 -20 272 159 347 505 13 58 26 108 29 112 4 4
38 -4 76 -18 83 -31 219 -73 257 -79 215 -38 328 -17 387 73 60 91 26 226 -95
383 -44 58 -203 222 -263 272 l-33 27 28 23 c65 50 245 243 295 314 59 86 99
184 99 244 0 86 -58 156 -152 183 -96 28 -297 -4 -500 -79 -51 -19 -95 -31
-98 -27 -4 4 -19 63 -34 132 -78 353 -220 529 -385 479z m88 -180 c53 -57 135
-301 157 -465 l6 -51 -73 -38 c-41 -20 -78 -41 -84 -46 -17 -17 -45 -9 -136
37 l-91 45 6 48 c14 116 66 299 111 393 36 74 43 83 82 97 1 1 11 -9 22 -20z
m-710 -514 c72 -18 182 -56 247 -84 l52 -22 -5 -47 c-2 -26 -5 -65 -7 -87 -3
-22 -5 -56 -5 -75 -1 -33 -8 -41 -78 -93 l-76 -56 -46 38 c-175 148 -346 360
-339 421 3 21 9 26 43 30 47 6 134 -4 214 -25z m1609 20 c35 -12 -14 -117
-105 -223 -50 -58 -201 -208 -244 -241 l-26 -20 -73 54 c-40 30 -74 56 -76 57
-1 2 -5 46 -9 98 -4 52 -8 107 -11 121 -3 24 2 29 44 47 208 89 419 134 500
107z m-1118 -215 c13 -9 13 -11 0 -20 -22 -15 -29 -12 -27 10 1 22 6 24 27 10z
m410 -10 c0 -23 -13 -26 -29 -6 -9 11 -9 15 1 19 23 10 28 7 28 -13z m-102
-167 c59 -36 109 -68 111 -69 9 -8 6 -238 -3 -256 -11 -21 -201 -147 -224
-148 -13 0 -172 96 -212 128 -22 18 -23 27 -25 131 0 62 4 122 10 133 11 21
201 147 223 148 7 0 61 -30 120 -67z m-585 -377 c56 -42 67 -55 68 -80 3 -58
7 -122 12 -168 l5 -47 -71 -29 c-86 -36 -220 -77 -322 -98 -32 -7 -143 -6
-155 1 -46 28 55 181 233 354 110 106 140 130 153 123 6 -4 41 -29 77 -56z
m1095 -1 c221 -203 354 -388 302 -420 -19 -12 -125 -7 -201 9 -78 17 -217 62
-301 98 -43 18 -46 22 -43 51 2 18 7 72 10 122 4 49 8 91 9 93 2 1 36 27 76
57 81 61 71 62 148 -10z m-819 -189 c9 -11 8 -15 -5 -20 -23 -9 -24 -8 -24 14
0 23 13 26 29 6z m411 0 c0 -20 -13 -27 -30 -15 -13 8 -13 10 0 19 21 14 30
12 30 -4z m-204 -115 c5 -5 46 -28 92 -51 94 -47 91 -39 62 -179 -38 -180 -98
-337 -146 -382 l-24 -22 -24 22 c-36 34 -99 177 -122 276 -1 6 -5 21 -7 35 -3
14 -13 57 -21 95 -25 114 -28 108 77 163 107 57 100 55 113 43z"/>
<path d="M1225 1401 c-64 -29 -96 -106 -70 -168 51 -120 219 -113 254 11 19
71 -12 133 -79 160 -50 20 -56 20 -105 -3z"/>
</g>
</svg>
